<?xml version="1.0" encoding="UTF-8" standalone="no"?>
<!DOCTYPE svg PUBLIC "-//W3C//DTD SVG 1.1//EN" "http://www.w3.org/Graphics/SVG/1.1/DTD/svg11.dtd">
<svg width="100%" height="100%" viewBox="0 0 529 529" version="1.1" xmlns="http://www.w3.org/2000/svg" xmlns:xlink="http://www.w3.org/1999/xlink" xml:space="preserve" xmlns:serif="http://www.serif.com/" style="fill-rule:evenodd;clip-rule:evenodd;stroke-linejoin:round;stroke-miterlimit:2;">
    <g transform="matrix(1,0,0,1,-3056,0)">
        <g id="Brackets_icon" transform="matrix(1,0,0,1,-0.962497,0)">
            <rect x="3056.962" y="0" width="528.742" height="528.742" style="fill:none;"/>
            <g transform="matrix(1.296264,0,0,1.296264,2098.302139,-1881.328466)">
                <path d="M873.556,1729.675C876.304,1732.984 895.14,1747.668 905.712,1737.227C906.92,1736.034 908.376,1736.034 908.628,1736.034C909.156,1736.034 909.695,1736.134 910.183,1736.334C910.42,1736.432 911.787,1736.993 912.448,1738.599C913.088,1740.155 912.543,1741.481 912.448,1741.711C912.027,1742.734 911.951,1742.697 911.152,1743.459C894.787,1759.073 869.794,1740.282 865.996,1735.289C859.033,1726.133 864.647,1700.987 859.99,1683.957C858.109,1677.076 855.296,1674.97 854.311,1673.74C849.643,1667.909 854.671,1662.786 854.765,1662.675C858.524,1658.267 867.133,1653.546 866.929,1635.471C866.839,1627.526 865.139,1621.886 864.295,1614.631C859.739,1575.47 885.959,1574.523 901.929,1571.168C902.942,1570.955 902.951,1570.879 903.97,1571.073C904.214,1571.12 905.623,1571.389 906.576,1572.773C906.722,1572.984 907.561,1574.202 907.237,1575.909C907.19,1576.154 906.923,1577.563 905.537,1578.516C904.669,1579.113 904.629,1579.045 903.596,1579.254C890.333,1581.94 876.987,1582.406 873.033,1596.195C870.01,1606.738 873.596,1620.899 874.253,1624.463C879.688,1653.982 867.221,1663.388 862.841,1668.313C865.098,1670.706 869.537,1675.974 871.251,1688.5C873.442,1704.499 870.288,1724.025 873.556,1729.675Z"/>
            </g>
            <g transform="matrix(1.296264,0,0,1.296264,2135.443439,-1881.328466)">
                <path d="M937.441,1734.407C937.432,1734.398 937.433,1734.398 937.441,1734.407ZM978.975,1660.643C975.759,1658.056 967.928,1651.479 965.165,1641.207C961.851,1628.887 967.258,1617.586 970.963,1607.655C973.55,1600.724 975.104,1595.141 972.465,1591.093C966.659,1582.186 966.632,1578.807 958.182,1577.763C951.236,1576.904 941.05,1578.344 940.81,1578.322C940.269,1578.272 939.708,1578.325 939.187,1578.172C938.948,1578.102 937.572,1577.698 936.757,1576.228C936.633,1576.003 935.916,1574.71 936.403,1573.042C936.473,1572.803 936.875,1571.427 938.347,1570.612C939.379,1570.041 939.427,1570.16 940.601,1570.038C964.134,1567.59 969.977,1571.474 975.453,1580.537C976.829,1582.815 977.357,1583.879 979.087,1586.512C985.828,1596.772 978.772,1608.53 975.089,1620.105C970.881,1633.332 971.564,1643.239 985.913,1653.769C986.911,1654.501 992.324,1658.56 987.898,1665.239C984.731,1670.018 977.01,1675.223 982.996,1694.37C983.099,1694.7 983.53,1695.768 984.392,1700.291C986.126,1709.383 986.742,1719.389 985.26,1726.785C984.923,1728.468 982.616,1742.376 969.145,1742.983C967.462,1743.059 966.731,1743.067 958.837,1741.867C942.504,1739.385 940.49,1737.994 937.997,1735.037C937.7,1734.684 937.502,1734.471 937.449,1734.415C937.447,1734.413 937.444,1734.41 937.441,1734.407C937.368,1734.327 936.822,1733.723 936.542,1733.038C936.448,1732.807 935.905,1731.479 936.542,1729.926C936.639,1729.689 937.2,1728.323 938.805,1727.663C940.361,1727.023 941.687,1727.568 941.917,1727.663C942.089,1727.733 942.828,1728.037 943.76,1729.071C944.23,1729.592 944.46,1729.933 944.786,1730.206L944.787,1730.205C945.581,1730.685 947.911,1731.871 966.294,1733.894C971.257,1734.441 974.639,1732.663 975.971,1724.844C977.492,1715.913 974.947,1702.899 973.66,1698.15L973.659,1698.15C970.196,1687.727 968.251,1675.595 975.836,1664.672C977.047,1662.928 978.107,1661.724 978.975,1660.643Z"/>
            </g>
        </g>
    </g>
</svg>
