<?xml version="1.0" encoding="UTF-8" standalone="no"?>
<!DOCTYPE svg PUBLIC "-//W3C//DTD SVG 1.1//EN" "http://www.w3.org/Graphics/SVG/1.1/DTD/svg11.dtd">
<svg width="100%" height="100%" viewBox="0 0 230 326" version="1.1" xmlns="http://www.w3.org/2000/svg" xmlns:xlink="http://www.w3.org/1999/xlink" xml:space="preserve" xmlns:serif="http://www.serif.com/" style="fill-rule:evenodd;clip-rule:evenodd;stroke-linecap:round;stroke-linejoin:round;stroke-miterlimit:1.5;">
    <g transform="matrix(1,0,0,1,-1303,-1626)">
        <g id="BUILD-WORKING" transform="matrix(0.935344,0,0,0.962753,98.442912,69.264586)">
            <rect x="1288.707" y="1617.94" width="244.802" height="337.144" style="fill:none;"/>
            <g>
                <g transform="matrix(0.967933,0,0,0.719965,2327.878688,1498.612741)">
                    <g transform="matrix(1.092128,-0.215707,0.165148,1.426476,-2702.314329,-1833.849221)">
                        <path d="M1318.118,1661.657C1305.156,1655.177 1286.293,1643.039 1276.724,1652.841C1271.887,1657.797 1272.074,1664.483 1282.501,1670.378C1297.87,1679.068 1321.648,1682.249 1321.648,1682.249" style="fill:rgb(170,80,180);stroke:black;stroke-width:7.22px;"/>
                    </g>
                    <g transform="matrix(1.104544,0,0,1.442693,-2448.706122,-2135.805981)">
                        <path d="M1352.443,1658.68C1346.594,1610.258 1338.538,1606.212 1330.914,1610.086C1317.835,1616.731 1334.043,1631.1 1339.143,1652.333C1339.143,1652.333 1340.322,1653.101 1340.482,1662.246" style="fill:rgb(170,80,180);stroke:black;stroke-width:5.61px;"/>
                    </g>
                    <g transform="matrix(1.065098,0.382108,-0.292547,1.391171,-1930.113871,-2590.915508)">
                        <path d="M1375.247,1666.486C1369.481,1644.719 1368.027,1633.484 1377.962,1621.845C1383.209,1615.698 1387.58,1607.718 1394.896,1614.332C1404.746,1623.238 1385.986,1630.906 1389.173,1662.661" style="fill:rgb(170,80,180);stroke:black;stroke-width:6.19px;"/>
                    </g>
                    <g transform="matrix(1.065098,0.382108,-0.292547,1.391171,-1929.303872,-2600.519712)">
                        <path d="M1386.212,1670.378C1384.439,1664.077 1388.696,1652.437 1394.781,1643.794C1401.629,1634.065 1413.47,1630.736 1418.953,1640.491C1426.296,1653.556 1404.687,1650.981 1401.608,1657.139" style="fill:rgb(170,80,180);"/>
                        <path d="M1400.846,1658.62C1400.258,1658.317 1400.245,1658.286 1400.044,1657.657C1399.53,1656.047 1401.784,1654.299 1402.042,1654.099C1406.721,1650.471 1418.158,1649.669 1418.016,1645.299C1417.964,1643.713 1415.676,1637.817 1410.262,1637.519C1407.727,1637.379 1402.049,1638.576 1396.613,1646.234C1390.849,1654.355 1386.838,1664.279 1387.766,1669.678C1387.9,1670.457 1388.049,1670.501 1387.663,1671.19C1387.655,1671.204 1386.661,1671.982 1386.653,1671.981C1386.236,1671.932 1385.77,1672.03 1385.405,1671.825C1385.279,1671.755 1384.775,1671.472 1384.449,1670.302C1381.932,1661.267 1388.962,1644.875 1395.644,1638.152C1405.123,1628.614 1417.887,1629.75 1422.22,1641.436C1425.331,1649.825 1417.214,1652.577 1416.62,1652.813C1411.659,1654.786 1404.612,1655.501 1403.14,1657.81C1403.036,1657.974 1402.185,1659.309 1400.846,1658.62Z"/>
                    </g>
                    <g transform="matrix(1.104544,0,0,1.442693,-2509.332087,-2181.435787)">
                        <path d="M1473.003,1664.839C1473.955,1663.887 1482.18,1649.54 1498.861,1653.71C1501.013,1654.248 1503.286,1667.618 1493.458,1667.907C1484.667,1668.166 1483.975,1667.334 1477.776,1673.532C1476.218,1675.091 1472.849,1679.251 1471.64,1674.555C1470.809,1671.332 1471.127,1668.591 1473.003,1664.839Z" style="fill:white;"/>
                        <path d="M1471.81,1663.7L1471.803,1663.694C1472.847,1662.061 1481.362,1646.919 1499.143,1650.752C1499.979,1650.933 1502.369,1651.286 1503.419,1656.332C1504.758,1662.769 1501.946,1670.601 1493.552,1670.706C1486.054,1670.8 1485.352,1669.887 1481.009,1673.701C1478.013,1676.332 1475.331,1679.838 1472.231,1678.598C1471.719,1678.394 1469.548,1677.525 1469.311,1672.349C1469.222,1670.387 1469.599,1668.932 1469.769,1668.292C1469.904,1667.788 1470.682,1665.291 1471.81,1663.7ZM1471.831,1663.672C1471.831,1663.671 1471.832,1663.67 1471.833,1663.669C1471.828,1663.664 1471.828,1663.665 1471.831,1663.672ZM1474.408,1665.754C1473.964,1666.77 1473.105,1668.758 1473.103,1670.989C1473.102,1672.193 1473.395,1673.603 1473.703,1674.369C1475.305,1673.149 1477.376,1670.184 1480.365,1667.921C1484.531,1664.766 1488.273,1665.506 1493.543,1665.096C1494.885,1664.992 1497.506,1664.541 1497.727,1659.95C1497.815,1658.112 1497.495,1656.949 1497.27,1656.361C1492.34,1655.242 1483.774,1654.517 1475.093,1664.938C1474.728,1665.376 1474.666,1665.467 1474.408,1665.754Z"/>
                    </g>
                    <g transform="matrix(-1.081736,0.291667,0.223304,1.412902,190.349951,-2569.068204)">
                        <path d="M1473.003,1664.839C1473.955,1663.887 1482.18,1649.54 1498.861,1653.71C1501.013,1654.248 1503.286,1667.618 1493.458,1667.907C1484.667,1668.166 1483.975,1667.334 1477.776,1673.532C1476.218,1675.091 1472.849,1679.251 1471.64,1674.555C1470.809,1671.332 1471.127,1668.591 1473.003,1664.839Z" style="fill:white;"/>
                        <path d="M1471.808,1663.699C1471.736,1663.784 1471.506,1664.065 1470.966,1665.177C1470.6,1665.932 1468.326,1670.175 1469.791,1675.462C1469.799,1675.491 1470.478,1678.646 1473.274,1678.834C1476.621,1679.06 1479.187,1674.728 1483.074,1672.053C1485.719,1670.232 1487.431,1670.764 1493.552,1670.706C1502.574,1670.621 1505.165,1661.479 1503.038,1654.858C1501.772,1650.921 1499.649,1650.808 1497.862,1650.507C1481.111,1647.689 1473.043,1661.744 1471.803,1663.694L1471.808,1663.699ZM1474.415,1665.737C1476.564,1663.238 1484.009,1653.302 1497.118,1656.312C1497.153,1656.32 1497.173,1656.324 1497.252,1656.345C1497.973,1658.396 1498.459,1663.957 1494.558,1664.935C1492.216,1665.523 1486.527,1664.745 1482.699,1666.5C1481.058,1667.253 1479.607,1668.43 1478.013,1669.987C1475.518,1672.425 1474.831,1673.557 1473.706,1674.374C1473.389,1673.59 1473.07,1672.098 1473.107,1670.75C1473.166,1668.604 1473.994,1666.7 1474.415,1665.737Z"/>
                    </g>
                    <g transform="matrix(1.081736,-0.291667,0.223304,1.412902,-2854.165394,-1697.308693)">
                        <path d="M1328.826,1672.64C1327.889,1670.766 1322.04,1670.199 1319.735,1670.841C1315.058,1672.144 1313.465,1677.305 1319.735,1678.201C1324.636,1678.901 1324.259,1677.093 1326.499,1676.346C1326.832,1676.235 1326.966,1676.19 1330.872,1676.574C1330.696,1675.13 1330.706,1674.767 1328.826,1672.64Z" style="fill:white;"/>
                        <path d="M1327.246,1678.577C1325.951,1679.308 1325.109,1681.542 1319.337,1680.981C1311.272,1680.198 1310.467,1672.153 1316.876,1668.94C1317.537,1668.609 1320.594,1667.077 1326.111,1668.879C1329.038,1669.835 1329.894,1671.099 1330.192,1671.669C1331.856,1673.319 1332.417,1673.922 1332.825,1676.07C1333.164,1677.859 1331.743,1678.546 1331.005,1678.598C1330.645,1678.623 1328.695,1678.475 1327.246,1678.577ZM1327.267,1673.43C1326.738,1673.275 1324.768,1672.737 1321.748,1673.157C1319.714,1673.44 1318.919,1674.434 1318.677,1674.869C1319.738,1675.607 1322.375,1675.807 1322.912,1675.584C1323.322,1675.413 1324.255,1674.57 1325.596,1674.162C1326.321,1673.941 1326.786,1673.9 1327.798,1674.028C1327.673,1673.85 1327.53,1673.646 1327.363,1673.413L1327.359,1673.416L1327.323,1673.447C1327.315,1673.445 1327.306,1673.442 1327.296,1673.439C1326.88,1673.651 1326.966,1673.601 1327.267,1673.43Z"/>
                    </g>
                    <g transform="matrix(1.104544,0,0,1.442693,-2448.706122,-2135.805981)">
                        <path d="M1340.482,1662.461C1339.922,1659.944 1327.213,1631.846 1308.478,1629.973C1298.611,1628.986 1291.814,1642.117 1301.729,1650.843C1309.029,1657.267 1325.224,1670.477 1334.577,1672.816" style="fill:rgb(170,80,180);stroke:black;stroke-width:7.79px;"/>
                    </g>
                    <g transform="matrix(1.092128,-0.215707,0.165148,1.426476,-2680.796179,-1831.963836)">
                        <path d="M1302.581,1684.462C1294.137,1676.019 1277.416,1673.709 1264.417,1678.044C1256.83,1680.573 1253.496,1693.314 1264.417,1697.995C1276.582,1703.209 1282.696,1699.749 1305.496,1697.995" style="fill:rgb(170,80,180);stroke:black;stroke-width:7.85px;"/>
                    </g>
                    <g transform="matrix(1.104544,0,0,1.442693,-2453.907197,-2132.962312)">
                        <path d="M1299.937,1725.667C1299.784,1726.139 1292.638,1742.144 1290.61,1750.781C1287.804,1762.741 1278.585,1784.184 1278,1814.806C1277.893,1820.413 1276.516,1861.291 1280.873,1880.051C1283.79,1892.611 1290.107,1901.663 1293.454,1904.559C1306.99,1916.274 1307.78,1906.934 1330.58,1902.228C1344.388,1899.378 1358.862,1894.728 1372.751,1889.742C1392.161,1882.774 1400.993,1874.073 1397.985,1865.547C1396.64,1861.736 1391.502,1858.851 1390.716,1855.018C1387.279,1838.237 1386.09,1816.257 1386.686,1798.581C1386.78,1795.791 1387.7,1784.669 1390.716,1782.972C1393.983,1781.134 1398.914,1785.385 1403.093,1785.172C1407.303,1784.958 1410.749,1780.268 1410.954,1775.554C1427.674,1779.916 1423.298,1779.891 1441.096,1775.554C1460.438,1770.841 1467.896,1751.511 1469.566,1736.566C1470.676,1726.642 1464.845,1714.437 1443.462,1698.4C1414.109,1676.385 1426.192,1660.91 1386.686,1658.502C1370.281,1657.502 1361.258,1656.239 1335.304,1669.217C1331.789,1670.974 1317.129,1687.852 1316.089,1689.931C1316.089,1689.931 1306.573,1705.193 1299.937,1725.667Z" style="fill:white;"/>
                    </g>
                    <g transform="matrix(1.104544,0,0,1.442693,-2453.907197,-2132.962312)">
                        <path d="M1462.293,1736.62C1453.683,1729.324 1437.63,1723.158 1423.973,1726.097C1414.411,1728.155 1405.108,1735.643 1403.136,1745.504C1401.065,1755.856 1388.378,1778.225 1417.871,1778.225C1419.635,1778.225 1437.126,1777.483 1440.841,1776.058C1463.306,1767.44 1466.387,1759.156 1466.844,1745.288C1466.862,1744.756 1467.714,1747.325 1466.695,1745.288" style="fill:rgb(170,80,180);"/>
                    </g>
                    <g transform="matrix(0.531985,0,0,0.694849,-3300.722003,-1002.488005)">
                        <path d="M4486.2,2222.829C4506.306,2244.158 4508.346,2268.362 4483.246,2280.844C4477.057,2283.921 4476.589,2282.045 4471.44,2277.431C4471.426,2277.419 4471.086,2271.176 4471.097,2271.143C4472.731,2266.494 4473.955,2267.454 4478.177,2264.922C4484.013,2261.422 4488.71,2256.28 4481.869,2244.217C4478.035,2237.454 4472.834,2232.722 4472.201,2231.854C4471.847,2231.369 4471.145,2231.22 4468.739,2220.541C4463.29,2196.349 4461.395,2168.741 4463.504,2153.921C4464.264,2148.587 4465.001,2144.8 4465.83,2135.242C4466.409,2128.564 4465.753,2114.24 4467.384,2098.055C4467.443,2097.475 4468.965,2081.613 4474.966,2072.014C4475.08,2071.832 4476.21,2070.023 4476.505,2069.81C4477.091,2069.384 4477.638,2068.787 4478.352,2068.664C4478.387,2068.658 4480.49,2069.135 4480.5,2069.151C4480.889,2069.762 4481.529,2070.279 4481.652,2070.993C4481.914,2072.515 4481.518,2072.468 4480.77,2073.821C4477.68,2079.404 4476.502,2087.372 4475.933,2101.471C4475.428,2113.98 4476.25,2129.953 4476.362,2132.441C4476.538,2136.38 4477.836,2141.823 4478.452,2156.441C4478.978,2168.943 4478.788,2188.298 4483.998,2213.427C4484.854,2217.558 4485.677,2220.848 4486.2,2222.829Z"/>
                    </g>
                    <g transform="matrix(2.366914,0,0,3.091528,-2846.286949,-1179.930874)">
                        <path d="M787.667,535.497C787.378,535.353 784.972,534.15 783.624,535.497" style="fill:none;stroke:black;stroke-width:2px;"/>
                    </g>
                    <g transform="matrix(2.366914,0,0,3.091528,-2861.277105,-1202.706335)">
                        <path d="M773.096,533.638C772.819,533.322 769.176,532.301 765.733,528.857" style="fill:none;stroke:black;stroke-width:2px;"/>
                    </g>
                    <g transform="matrix(2.366914,0,0,3.091528,-2861.468478,-1189.458499)">
                        <path d="M770.041,537.599C768.113,535.671 767.766,536.477 765.028,536.306" style="fill:none;stroke:black;stroke-width:2px;"/>
                    </g>
                    <g transform="matrix(2.366914,0,0,3.091528,-2859.172003,-1187.374329)">
                        <path d="M768.424,543.744C767.435,543.592 767.08,544.269 762.764,540.672" style="fill:none;stroke:black;stroke-width:2px;"/>
                    </g>
                    <g transform="matrix(2.366914,0,0,3.091528,-2846.286949,-1179.930874)">
                        <path d="M755.776,547.456C753.755,547.051 760.976,547.49 760.599,547.456" style="fill:none;stroke:black;stroke-width:2px;"/>
                    </g>
                    <g transform="matrix(2.366914,0,0,3.091528,-2846.286949,-1179.930874)">
                        <path d="M782.654,541.804C779.137,541.413 778.32,541.685 777.964,541.804" style="fill:none;stroke:black;stroke-width:2px;"/>
                    </g>
                    <g transform="matrix(2.366914,0,0,3.091528,-2846.286949,-1179.930874)">
                        <path d="M794.135,533.557C794.458,533.233 794.74,532.67 794.782,532.587C794.889,532.372 796.603,531.574 797.208,530.969" style="fill:none;stroke:black;stroke-width:2px;"/>
                    </g>
                    <g transform="matrix(2.366914,0,0,3.091528,-2846.286949,-1179.930874)">
                        <path d="M800.28,535.174C803.847,533.985 806.114,534.835 806.586,535.012" style="fill:none;stroke:black;stroke-width:2px;"/>
                    </g>
                    <g transform="matrix(2.366914,0,0,3.091528,-2846.286949,-1179.930874)">
                        <path d="M788.799,528.22C788.618,527.77 787.692,525.454 784.756,523.693" style="fill:none;stroke:black;stroke-width:2px;"/>
                    </g>
                    <g transform="matrix(2.366914,0,0,3.091528,-2846.286949,-1179.930874)">
                        <path d="M779.743,529.029C778.475,528.184 778.409,528.483 776.832,528.22" style="fill:none;stroke:black;stroke-width:2px;"/>
                    </g>
                    <g transform="matrix(2.366914,0,0,3.091528,-2846.286949,-1179.930874)">
                        <path d="M774.407,536.475C774.314,536.521 769.865,536.151 769.38,536.475" style="fill:none;stroke:black;stroke-width:2px;"/>
                    </g>
                    <g transform="matrix(2.366914,0,0,3.091528,-2846.286949,-1179.930874)">
                        <path d="M755.041,555.338C754.835,555.406 761.731,556.327 760.599,556.65" style="fill:none;stroke:black;stroke-width:2px;"/>
                    </g>
                    <g transform="matrix(2.366914,0,0,3.091528,-2866.152691,-1175.762545)">
                        <path d="M822.35,533.955C822.708,533.241 825.053,533.211 825.973,533.308C826.525,533.366 827.549,535.073 827.654,535.249" style="fill:none;stroke:black;stroke-width:2px;"/>
                    </g>
                    <g transform="matrix(2.366914,0,0,3.091528,-2861.559741,-1169.508411)">
                        <path d="M820.151,537.965C820.634,538.158 824.494,539.703 825.714,541.329" style="fill:none;stroke:black;stroke-width:2px;"/>
                    </g>
                    <g transform="matrix(2.366914,0,0,3.091528,-2846.286949,-1179.930874)">
                        <path d="M813.716,549.255C816.87,549.387 818.166,547.908 818.666,550.905" style="fill:none;stroke:black;stroke-width:2px;"/>
                    </g>
                    <g transform="matrix(2.366914,0,0,3.091528,-2846.286949,-1179.930874)">
                        <path d="M814.633,554.756C814.968,554.923 817.933,556.406 818.666,557.139" style="fill:none;stroke:black;stroke-width:2px;"/>
                    </g>
                    <g transform="matrix(2.366914,0,0,3.091528,-2846.286949,-1179.930874)">
                        <path d="M796.848,543.022C797.615,541.488 799.251,542.715 799.415,542.838" style="fill:none;stroke:black;stroke-width:2px;"/>
                    </g>
                    <g transform="matrix(2.366914,0,0,3.091528,-2846.286949,-1179.930874)">
                        <path d="M807.666,546.505C807.99,547.154 808.16,546.972 808.582,547.605" style="fill:none;stroke:black;stroke-width:2px;"/>
                    </g>
                    <g transform="matrix(2.366914,0,0,3.091528,-2846.286949,-1179.930874)">
                        <path d="M802.165,554.939L802.165,556.956" style="fill:none;stroke:black;stroke-width:2px;"/>
                    </g>
                    <g transform="matrix(2.366914,0,0,3.091528,-2846.286949,-1179.930874)">
                        <path d="M793.548,551.272C792.94,551.88 792.948,551.805 792.448,552.556" style="fill:none;stroke:black;stroke-width:2px;"/>
                    </g>
                    <g transform="matrix(2.366914,0,0,3.091528,-2846.286949,-1179.930874)">
                        <path d="M777.231,544.489C777.099,544.577 775.581,545.589 775.581,545.589C775.118,545.743 775.155,545.648 774.848,545.955" style="fill:none;stroke:black;stroke-width:2px;"/>
                    </g>
                    <g transform="matrix(2.366914,0,0,3.091528,-2846.286949,-1179.930874)">
                        <path d="M776.681,554.022C775.23,555.473 775.114,555.189 772.281,556.039" style="fill:none;stroke:black;stroke-width:2px;"/>
                    </g>
                    <g transform="matrix(1.476165,0,0,1.928083,-1135.24287,-2350.559284)">
                        <path d="M81.253,1512.752C82.371,1514.018 87.583,1533.981 88.082,1536.349" style="fill:white;stroke:black;stroke-width:4.8px;"/>
                    </g>
                    <g transform="matrix(1.476165,0,0,1.928083,-1135.24287,-2350.559284)">
                        <path d="M99.206,1515.904C98.489,1519.253 104.747,1525.863 104.355,1531.741" style="fill:white;stroke:black;stroke-width:4.8px;"/>
                    </g>
                    <g transform="matrix(1.476165,0,0,1.928083,-1135.24287,-2350.559284)">
                        <path d="M113.202,1512.752C111.537,1522.74 113.589,1529.805 113.202,1531.741" style="fill:white;stroke:black;stroke-width:4.8px;"/>
                    </g>
                    <g transform="matrix(1.476165,0,0,1.928083,-1135.24287,-2350.559284)">
                        <path d="M126.139,1512.752C125.792,1520.746 130.934,1523.839 126.139,1528.085" style="fill:white;stroke:black;stroke-width:4.8px;"/>
                    </g>
                    <g transform="matrix(1.476165,0,0,1.928083,-1135.24287,-2350.559284)">
                        <path d="M136.119,1504.352C137.098,1513.645 141.194,1511.841 141.194,1521.152" style="fill:none;stroke:black;stroke-width:4.8px;"/>
                    </g>
                    <g transform="matrix(2.366914,0,0,4.948923,-2502.479144,-1029.648481)">
                        <path d="M621.783,318.815C629.894,321.938 661.477,320.215 667.467,314.114" style="fill:none;stroke:black;stroke-width:2.24px;"/>
                    </g>
                </g>
                <g transform="matrix(1.069125,0,0,1.038688,-47.339692,-37.045095)">
                    <path d="M1291.442,1744.443C1290.716,1749.893 1279.756,1780.123 1277.536,1816.151C1275.497,1849.236 1277.34,1843.258 1279.864,1865.989C1286.078,1921.954 1306.532,1908.889 1321.274,1903.024C1332.831,1898.426 1351.423,1896.944 1359.724,1893.896C1373.727,1888.754 1381.662,1886.363 1390.487,1878.754" style="fill:none;stroke:black;stroke-width:8px;"/>
                </g>
                <g transform="matrix(0.855334,0,0,1.038688,231.181475,-37.045095)">
                    <path d="M1430.872,1664.004C1430.194,1664.787 1430.14,1664.811 1428.97,1664.982C1427.335,1665.22 1427.37,1664.898 1425.968,1664.178C1423.281,1662.799 1415.28,1659.299 1404.199,1657.868C1398.795,1657.171 1395.358,1657.157 1395.199,1657.134C1395.186,1657.132 1394.122,1656.822 1392.515,1656.423C1391.842,1656.256 1391.837,1656.275 1391.216,1656.279C1388.483,1656.293 1382.648,1656.407 1375.334,1657.783C1373.705,1658.09 1368.678,1659.771 1361.914,1662.721C1357.637,1664.585 1347.596,1667.986 1336.929,1677.215C1330.623,1682.67 1327.138,1687.23 1319.802,1697.452C1300.169,1724.808 1295.725,1737.852 1294.051,1743.604C1293.595,1745.168 1293.537,1745.238 1291.845,1746.097C1291.827,1746.106 1288.078,1746.63 1288.069,1746.624C1287.03,1746.039 1285.638,1745.721 1284.957,1744.863C1283.6,1743.151 1283.954,1743.006 1284.525,1741.032C1288.254,1728.152 1297.545,1710.872 1317.353,1684.448C1330.591,1666.789 1347.212,1659.392 1354.466,1656.519C1357.968,1655.132 1363.178,1654.161 1363.957,1654.016C1369.003,1653.075 1372.23,1653.008 1373.978,1652.73C1383.698,1651.185 1391.956,1651.509 1392.01,1651.502C1392.083,1651.493 1393.298,1651.235 1395.518,1650.887C1395.864,1650.833 1402.109,1651.228 1408.705,1652.661C1420.28,1655.175 1426.59,1658.796 1429.78,1660.524C1430.937,1661.151 1431.095,1661.136 1431.345,1662.234C1431.566,1663.202 1430.975,1663.885 1430.872,1664.004Z"/>
                </g>
                <g transform="matrix(1.069125,0,0,1.038688,-16.175663,25.272574)">
                    <path d="M1318.077,1694.393C1309.758,1679.985 1299.308,1658.354 1321.215,1656.07C1329.36,1655.22 1336.732,1658.5 1337.71,1660.456C1338.547,1662.132 1338.925,1672.726 1342.96,1692.376L1327.49,1692.376" style="fill:rgb(255,3,0);"/>
                </g>
                <g transform="matrix(0.855334,0,0,1.038688,231.181475,-37.045095)">
                    <path d="M1374.845,1756.5C1360.061,1759.854 1355.852,1755.476 1354.546,1754.452C1349.904,1750.812 1344.043,1746.207 1342.982,1733.929C1342.801,1731.837 1339.883,1720.284 1351.635,1714.364C1357.14,1711.591 1363.232,1711.537 1363.616,1711.481C1365.335,1711.232 1367.333,1710.937 1371.014,1710.966C1371.865,1710.972 1385.489,1712.821 1389.185,1719.657C1390.448,1721.992 1389.92,1723.284 1389.563,1726.992C1387.928,1744.005 1391.756,1750.614 1395.082,1753.667C1412.576,1760.376 1422.063,1769.076 1432.523,1771.836C1446.363,1775.489 1479.077,1776.545 1498.312,1761.136C1504.803,1755.936 1507.296,1739.783 1504.132,1731.285C1496.025,1709.517 1481.951,1704.835 1478.391,1701.561C1475.545,1698.944 1476.759,1698.464 1479.027,1695.509C1479.033,1695.502 1482.723,1694.803 1482.743,1694.806C1484.188,1694.991 1485.314,1695.802 1485.789,1696.196C1485.459,1696.013 1485.411,1696.575 1484.91,1696.996L1485.91,1696.3C1486.021,1696.397 1486.061,1696.44 1486.019,1696.396C1485.983,1696.357 1485.95,1696.323 1485.919,1696.294C1489.316,1698.738 1505.589,1706.083 1514.139,1729.522C1517.57,1738.927 1515.877,1758.692 1505.651,1766.922C1481.422,1786.422 1440.228,1784.014 1425.205,1778.417C1415.741,1774.891 1408.069,1768.817 1396.059,1763.403C1386.709,1759.189 1378.982,1757.379 1374.845,1756.5ZM1485.919,1696.294L1485.91,1696.3C1485.877,1696.27 1485.836,1696.235 1485.789,1696.196C1485.828,1696.218 1485.871,1696.25 1485.919,1696.294ZM1385.739,1750.547C1383.105,1745.315 1381.435,1737.115 1382.614,1723.596C1382.631,1723.408 1383.51,1721.648 1379.031,1719.534C1374.951,1717.608 1369.994,1717.202 1369.905,1717.187C1369.642,1717.14 1367.745,1716.589 1364.662,1716.299C1364.479,1716.282 1364.114,1716.161 1361.806,1716.458C1350.273,1717.943 1349.302,1725.143 1349.223,1725.488C1348.628,1728.069 1349.005,1730.545 1349.346,1732.634C1349.357,1732.701 1350.13,1736.25 1351.876,1739.558C1354.605,1744.729 1357.962,1746.504 1362.143,1749.285L1362.151,1749.278C1362.954,1749.42 1363.849,1749.635 1366.81,1749.388C1368.7,1749.231 1371.202,1748.763 1372.719,1748.384C1374.571,1747.92 1374.862,1747.882 1379.374,1748.912C1381.595,1749.42 1383.714,1749.967 1385.739,1750.547Z"/>
                </g>
                <g transform="matrix(1.069125,0,0,1.038688,-47.339692,-37.045095)">
                    <path d="M1356.779,1724.012C1358.419,1724.763 1357.797,1726.447 1357.719,1726.658C1357.287,1727.828 1356.471,1731.287 1356.39,1735.066C1356.299,1739.334 1356.834,1743.573 1356.956,1743.984C1358.037,1747.639 1363.963,1751.127 1367.236,1752.105C1368.15,1752.378 1368.267,1752.295 1368.729,1753.127C1368.737,1753.142 1368.903,1754.589 1368.898,1754.596C1367.886,1755.874 1367.846,1756.329 1366.29,1755.84C1361.88,1754.455 1354.712,1749.79 1352.929,1745.679C1351.578,1742.565 1350.613,1733.511 1354.128,1725.252C1354.487,1724.409 1354.453,1724.308 1355.305,1723.979C1355.415,1723.937 1356.065,1723.686 1356.779,1724.012Z"/>
                </g>
                <g transform="matrix(1.069125,0,0,1.038688,-47.339692,-37.045095)">
                    <path d="M1398.826,1769.788C1398.075,1769.6 1398.044,1769.573 1397.646,1768.91C1397.049,1767.915 1397.416,1767.838 1397.578,1766.687C1398.686,1758.801 1395.128,1750.503 1399.19,1739.601C1399.865,1737.792 1402.309,1733.661 1405.904,1729.862C1410.476,1725.032 1415.808,1720.048 1424.889,1717.592C1426.462,1717.167 1435.965,1714.607 1446.191,1717.777C1452.002,1719.579 1455.612,1721.689 1459.563,1724.145C1460.979,1725.024 1466.642,1728.519 1468.441,1733.145C1469.025,1734.646 1468.551,1734.703 1467.357,1735.786C1467.35,1735.792 1465.895,1735.723 1465.88,1735.715C1464.748,1735.182 1465.084,1734.86 1464.494,1733.755C1463.028,1731.011 1459.074,1727.868 1455.637,1726.313C1452.347,1724.824 1447.667,1723.218 1438.846,1722.282C1435.304,1721.906 1422.005,1720.649 1412.331,1730.142C1409.009,1733.402 1407.017,1738.424 1405.118,1743.059C1401.502,1751.881 1403.546,1759.66 1401.392,1767.486C1401.299,1767.824 1401.3,1767.82 1401.219,1768.16C1401.013,1769.028 1401.048,1769.111 1400.284,1769.569C1399.597,1769.982 1398.941,1769.817 1398.826,1769.788Z"/>
                </g>
                <g transform="matrix(1.069125,0,0,1.038688,-47.339692,-37.045095)">
                    <path d="M1352.697,1777.543C1351.703,1776.414 1351.715,1776.32 1351.848,1774.822C1352.021,1772.888 1352.33,1772.946 1353.852,1771.74C1360.71,1766.307 1372.014,1764.068 1382.344,1770.772C1384.755,1772.337 1391.547,1777.869 1396.146,1779.879C1405.064,1783.776 1405.642,1779.791 1405.873,1779.582C1406.572,1778.947 1407.118,1778.022 1408.015,1777.73C1408.031,1777.724 1410.882,1777.956 1410.888,1777.962C1411.508,1778.684 1412.448,1779.228 1412.743,1780.134C1412.829,1780.397 1413.26,1781.719 1412.189,1783.557C1407.042,1792.388 1395.8,1787.634 1393.843,1786.85C1387.505,1784.311 1382.268,1781.305 1381.301,1780.749C1376.707,1778.112 1370.929,1773.633 1362.708,1775.864C1360.093,1776.574 1358.34,1777.739 1358.106,1777.888C1356.779,1778.732 1356.813,1779.026 1355.249,1778.887C1353.743,1778.753 1353.697,1778.677 1352.697,1777.543Z"/>
                </g>
                <g transform="matrix(0.173826,0.4709,-0.484699,0.168877,1271.841598,-173.633297)">
                    <path d="M3634.86,917.896C3598.284,832.26 3717.403,834.446 3725.122,873.039C3725.122,873.039 3733.401,928.908 3682.615,935.022" style="fill:white;stroke:black;stroke-width:16.42px;"/>
                </g>
                <g transform="matrix(0.773388,2.095135,-2.156529,0.75137,1494.842309,163.794295)">
                    <path d="M650.595,238.673C647.374,238.425 646.806,240.196 646.678,240.514C644.826,245.146 653.588,245.876 654.262,241.164C654.353,240.528 652.059,237.791 647.653,238.673" style="fill:none;stroke:black;stroke-width:1.6px;"/>
                </g>
                <g transform="matrix(0.514926,0,0,0.500267,-796.491943,718.987982)">
                    <path d="M4370.282,1949.013C4363.078,1905.783 4255.575,1889.249 4263.305,1992.319C4266.345,2032.854 4338.45,2047.208 4364.43,2016.898C4368.342,2012.334 4392.996,1971.726 4370.282,1949.013Z" style="fill:white;stroke:black;stroke-width:16.42px;"/>
                </g>
                <g transform="matrix(0.514926,0,0,0.500267,-794.085363,725.499156)">
                    <path d="M4337.51,1963.058C4336.598,1964.654 4323.319,1969.422 4343.362,1979.444C4349.628,1982.577 4362.574,1964.642 4342.192,1959.546" style="fill:none;stroke:black;stroke-width:16.42px;"/>
                </g>
            </g>
        </g>
    </g>
</svg>
