<?xml version="1.0" encoding="UTF-8" standalone="no"?>
<!DOCTYPE svg PUBLIC "-//W3C//DTD SVG 1.1//EN" "http://www.w3.org/Graphics/SVG/1.1/DTD/svg11.dtd">
<svg width="100%" height="100%" viewBox="0 0 529 529" version="1.1" xmlns="http://www.w3.org/2000/svg" xmlns:xlink="http://www.w3.org/1999/xlink" xml:space="preserve" xmlns:serif="http://www.serif.com/" style="fill-rule:evenodd;clip-rule:evenodd;stroke-linecap:round;stroke-linejoin:round;stroke-miterlimit:1.5;">
    <g transform="matrix(1,0,0,1,-3056,-764)">
        <g id="Scene_icon" transform="matrix(1,0,0,1,0,-0.962497)">
            <rect x="3056" y="764.962" width="528.742" height="528.742" style="fill:none;"/>
            <g transform="matrix(1.243616,0,0,1.243616,-843.677188,-196.693287)">
                <path d="M3175.041,890.341C3326.202,886.209 3347.995,898.651 3465.232,881.598C3504.503,875.886 3509.681,880.497 3517.597,877.858L3518.555,874.933C3518.943,858.861 3512.562,847.331 3526.005,829.031C3500.972,834.981 3490.154,832.163 3456.285,829.031C3431.614,826.75 3401.381,809.788 3383.028,799.909C3362.322,788.764 3327.446,790.534 3292.473,809.963C3238.647,839.866 3228.312,835.435 3166.46,835.435L3166.46,837.649C3169.769,839.486 3182.323,861.822 3175.041,890.341Z" style="stroke:black;stroke-width:11.39px;"/>
            </g>
            <g transform="matrix(1.243616,0,0,1.243616,-815.803046,-193.727258)">
                <path d="M3166.758,1126.16C3174.312,1080.835 3166.222,1041.826 3170.405,1016.724C3171.758,1008.611 3169.369,963.856 3166.516,934.99C3165.372,923.427 3164.389,914.555 3163.269,912.315C3162.371,910.518 3162.485,908.382 3163.569,906.692C3164.654,905.001 3166.548,904.007 3168.556,904.075L3266.712,907.389C3268.97,907.465 3270.969,908.869 3271.808,910.966C3274.603,917.955 3275.505,932.446 3272.101,948.674C3267.679,969.757 3256.168,993.727 3233.6,1007.537C3238.181,1010.405 3244.209,1014.211 3250.898,1018.51C3251.759,1019.064 3252.454,1019.839 3252.912,1020.754C3266.927,1048.784 3269.145,1069.73 3261.885,1127.803C3261.529,1130.653 3259.106,1132.792 3256.233,1132.792L3172.376,1132.792C3170.701,1132.792 3169.112,1132.055 3168.03,1130.778C3166.948,1129.5 3166.482,1127.811 3166.758,1126.16ZM3185.274,996.494L3185.274,1016.724C3190.94,1016.724 3205.607,1021.2 3212.451,1011.026C3214.874,1007.424 3215.402,1003.603 3212.451,1001.564C3203.077,995.084 3185.274,996.494 3185.274,996.494Z"/>
            </g>
            <g transform="matrix(1.243616,0,0,1.243616,-843.677188,-193.085343)">
                <path d="M3170.679,1144.905C3179.963,1149.547 3379.667,1139.538 3529.835,1148.683C3527.91,1161.559 3528.355,1161.357 3524.86,1173.916C3258.156,1166.483 3241.697,1159.929 3173.084,1168.31C3168.467,1158.342 3168.057,1158.899 3166.939,1147.71" style="stroke:black;stroke-width:11.39px;"/>
            </g>
            <g transform="matrix(1.243616,0,0,1.243616,-843.677188,-193.085343)">
                <path d="M3414.093,1121.632C3414.093,1121.632 3405.034,1058.382 3455.233,1020.591C3442.541,1010.947 3429.109,994.378 3422.008,973.106C3415.06,952.294 3423.355,924.252 3431.126,900.939C3431.877,898.686 3433.948,897.135 3436.321,897.048L3505.694,894.504C3507.483,894.438 3509.199,895.218 3510.327,896.609C3511.454,898 3511.862,899.84 3511.428,901.577C3503.056,935.068 3502.935,984.382 3503.182,1002.787C3504.148,1074.781 3511.523,1119.903 3511.523,1119.903C3511.793,1121.552 3511.325,1123.237 3510.243,1124.511C3509.161,1125.785 3507.574,1126.519 3505.902,1126.519L3419.731,1126.519C3416.898,1126.519 3414.495,1124.437 3414.093,1121.632ZM3493.042,1004.641C3472.885,1005.761 3466.608,1003.656 3467.05,1016.685C3467.331,1024.95 3476.629,1025.425 3494.34,1024.441L3493.042,1004.641Z"/>
            </g>
        </g>
    </g>
</svg>
